<svg xmlns="http://www.w3.org/2000/svg" width="437" height="345.645" viewBox="0 0 437 345.645">
  <g id="laravel" transform="translate(249.6 -561.5)">
    <path id="Path_430" data-name="Path 430" d="M-22.578,672.044-63.824,607.7-198.7,641.522l42.071,74.655Z" transform="translate(159.044 144.359)" fill="#ff2d20" opacity="0.4"/>
    <path id="Path_431" data-name="Path 431" d="M-177.5,599.461l40.834,59.808,57.332-16.086L-118.105,587.5Z" transform="translate(225.286 81.241)" fill="#ff2d20" opacity="0.4"/>
    <path id="Path_432" data-name="Path 432" d="M-51.2,754-154.733,568.8l-94.867,3.713,107.653,204.169Z" transform="translate(0 22.81)" fill="#ff2d20" opacity="0.4"/>
    <g id="comp_x5F_194-laravel" transform="translate(-222.689 599.96)">
      <path id="Path_433" data-name="Path 433" d="M-245.5,568.4l107.653,206.232L154.59,702.863l-44.959-62.7-62.694,9.075,98.579,143.125L11.052,837.326-146.921,568.4Z" transform="translate(245.5 -568.399)" fill="none" stroke="#fff" stroke-linecap="round" stroke-linejoin="round" stroke-miterlimit="10" stroke-width="20"/>
    </g>
    <g id="comp_x5F_194-laravel-2" data-name="comp_x5F_194-laravel" transform="translate(-232.689 589.96)">
      <path id="Path_433-2" data-name="Path 433" d="M-245.5,568.4l107.653,206.232L154.59,702.863l-44.959-62.7-62.694,9.075,98.579,143.125L11.052,837.326-146.921,568.4Z" transform="translate(245.5 -568.399)" fill="none" stroke="#373f54" stroke-linecap="round" stroke-linejoin="round" stroke-miterlimit="10" stroke-width="20"/>
    </g>
  </g>
</svg>
